SplineFontDB: 3.2
FontName: InconsolataLGC-Bold
FullName: Inconsolata LGC Bold
FamilyName: Inconsolata LGC
Weight: Bold
Copyright: Original Roman version created by Raph Levien using his own tools and FontForge. Copyright 2006 Raph Levien. Hellenisation of the Roman font, by Dimosthenis Kaponis, using FontForge. Hellenic glyphs Copyright 2010-2012 Dimosthenis Kaponis. Released under the SIL Open Font License, http://scripts.sil.org/OFL.\n\nCyrillic glyphs added by MihailJP, using FontForge. Cyrillic glyphs Copyright 2012 MihailJP. Released under the SIL Open Font License, http://scripts.sil.org/OFL.\n\nEmboldened by MihailJP.\n\nSome glyphs modified by Greg Omelaenko, using FontForge.\n\nArabic glyphs are derived from public domain part of DejaVu Sans Mono.
UComments: "2005-8-26: Created."
Version: 2.001
ItalicAngle: 0
UnderlinePosition: -101
UnderlineWidth: 50
Ascent: 840
Descent: 184
InvalidEm: 0
LayerCount: 2
Layer: 0 0 "Back" 1
Layer: 1 0 "Fore" 0
XUID: [1021 77 1780377399 11264577]
FSType: 0
OS2Version: 0
OS2_WeightWidthSlopeOnly: 0
OS2_UseTypoMetrics: 1
CreationTime: 1161020814
ModificationTime: 1774266799
PfmFamily: 49
TTFWeight: 700
TTFWidth: 5
LineGap: 0
VLineGap: 0
Panose: 2 11 8 9 3 0 3 0 0 0
OS2TypoAscent: 939
OS2TypoAOffset: 0
OS2TypoDescent: -198
OS2TypoDOffset: 0
OS2TypoLinegap: 0
OS2WinAscent: 1128
OS2WinAOffset: 0
OS2WinDescent: 283
OS2WinDOffset: 0
HheadAscent: 939
HheadAOffset: 0
HheadDescent: -198
HheadDOffset: 0
OS2CapHeight: 740
OS2XHeight: 543
OS2FamilyClass: 2048
OS2Vendor: 'PfEd'
Lookup: 1 0 0 "Initial forms" { "Initial forms-1"  } ['init' ('DFLT' <'dflt' > 'arab' <'dflt' > ) ]
Lookup: 1 0 0 "Medial forms" { "Medial forms-1"  } ['medi' ('DFLT' <'dflt' > 'arab' <'dflt' > ) ]
Lookup: 1 0 0 "Final forms" { "Final forms-1"  } ['fina' ('DFLT' <'dflt' > 'arab' <'dflt' > ) ]
Lookup: 1 0 0 "Isolated forms" { "Isolated forms-1"  } ['isol' ('DFLT' <'dflt' > 'arab' <'dflt' > ) ]

StartChar: comma
Encoding: 44 44 0
Width: 613
Flags: MW
TeX: 101 0
LayerCount: 2
Fore
SplineSet
388 8 m 0
 388 -65 350 -103 248 -205 c 1
 183 -157 l 1
 217 -129 232 -116 252 -87 c 0
 258 -79 268 -64 268 -52 c 0
 268 -39 258 -33 247 -27 c 0
 237 -20 207 -2 207 39 c 0
 207 83 242 122 290 122 c 0
 342 122 388 76 388 8 c 0
EndSplineSet
EndChar

StartChar: semicolon
Encoding: 59 59 1
Width: 613
Flags: MW
TeX: 118 0
LayerCount: 2
Fore
SplineSet
379 418 m 0
 379 372 340 335 293 335 c 0
 246 335 208 372 208 418 c 0
 208 464 246 502 293 502 c 0
 340 502 379 464 379 418 c 0
EndSplineSet
Refer: 0 44 N 1 0 0 1 0 0 2
EndChar

StartChar: substitutetwo
Encoding: 9254 9254 2
Width: 613
Flags: MW
TeX: 116 0
LayerCount: 2
Fore
SplineSet
207 68 m 0
 207 114 246 152 293 152 c 0
 340 152 379 114 379 68 c 0
 379 22 340 -15 293 -15 c 0
 246 -15 207 22 207 68 c 0
72 565 m 0
 72 683 155 790 298 790 c 0
 376 790 480 756 547 648 c 1
 463 570 l 1
 426 644 356 681 306 681 c 0
 244 681 197 633 197 571 c 0
 197 502 252 458 290 416 c 0
 345 355 350 300 350 265 c 2
 350 242 l 1
 241 242 l 1
 241 265 l 2
 241 289 240 322 195 362 c 0
 158 395 72 445 72 565 c 0
EndSplineSet
EndChar

StartChar: uniFE80
Encoding: 65152 65152 3
Width: 613
Flags: W
AnchorPoint: "rtl-below" 348 -6 basechar 0
AnchorPoint: "rtl-above" 319 578 basechar 0
LayerCount: 2
Fore
SplineSet
215 14 m 25
 215 130 l 17
 231 132 249 137 268 143 c 0
 284 149 301 156 318 162 c 1
 283 170 257 187 238 212 c 16
 217 241 206 272 206 304 c 0
 206 329 209 358 216 390 c 8
 221 415 245 441 286 468 c 0
 314 486 349 495 392 495 c 0
 428 495 461 491 492 484 c 9
 492 368 l 17
 459 379 431 383 408 382 c 0
 384 381 367 377 358 369 c 24
 343 356 336 335 336 306 c 0
 336 267 361 242 410 230 c 16
 429 225 448 225 468 230 c 0
 492 237 513 246 532 258 c 9
 532 136 l 25
 502 116 453 93 385 66 c 0
 308 37 251 19 215 14 c 25
EndSplineSet
Colour: ffff
EndChar

StartChar: uniFE8D
Encoding: 65165 65165 16
Width: 613
Flags: W
AnchorPoint: "rtl-below" 306 -38 basechar 0
AnchorPoint: "rtl-above" 303 848 basechar 0
LayerCount: 2
Fore
SplineSet
233 778 m 1
 379 778 l 1
 379 0 l 1
 233 0 l 1
 233 778 l 1
EndSplineSet
Colour: ffff
EndChar

StartChar: uniFE8E
Encoding: 65166 65166 17
Width: 613
Flags: W
AnchorPoint: "rtl-below" 334 -74 basechar 0
AnchorPoint: "rtl-above" 333 858 basechar 0
LayerCount: 2
Fore
SplineSet
268 206 m 2
 268 778 l 1
 410 778 l 1
 410 212 l 2
 410 177 418 151 435 135 c 0
 450 120 487 113 547 113 c 2
 625 113 l 1
 625 0 l 1
 493 0 l 2
 398 0 338 15 311 46 c 0
 282 79 268 133 268 206 c 2
EndSplineSet
Colour: ffff
EndChar

StartChar: uniFEA1
Encoding: 65185 65185 36
Width: 613
Flags: W
AnchorPoint: "rtl-below" 304 -294 basechar 0
AnchorPoint: "rtl-above" 209 566 basechar 0
LayerCount: 2
Fore
SplineSet
42 424 m 1
 134 445 213 456 278 455 c 0
 375 455 457 446 522 428 c 1
 522 331 l 1
 433 335 357 311 296 260 c 0
 223 198 186 121 186 30 c 0
 186 -27 207 -71 248 -102 c 0
 283 -129 331 -142 394 -142 c 0
 462 -142 529 -123 596 -86 c 1
 596 -200 l 1
 545 -233 479 -249 396 -250 c 0
 267 -251 174 -218 118 -153 c 0
 74 -102 52 -40 52 34 c 0
 52 118 76 193 124 260 c 0
 140 283 171 311 216 346 c 1
 203 347 183 346 157 342 c 0
 112 335 73 325 42 312 c 1
 42 424 l 1
EndSplineSet
Colour: ffff
EndChar

StartChar: uniFEA2
Encoding: 65186 65186 37
Width: 613
Flags: W
AnchorPoint: "rtl-below" 248 -280 basechar 0
AnchorPoint: "rtl-above" 225 582 basechar 0
LayerCount: 2
Fore
SplineSet
614 112 m 6
 634 112 l 1
 634 0 l 1
 610 0 l 2
 555 0 505 21 459 62 c 0
 424 95 396 135 376 180 c 0
 363 212 355 251 352 296 c 1
 339 295 320 283 296 260 c 0
 223 192 186 115 186 30 c 0
 186 -27 207 -71 248 -102 c 0
 283 -129 331 -142 394 -142 c 0
 462 -142 529 -123 596 -86 c 1
 596 -200 l 1
 545 -233 479 -249 396 -250 c 0
 267 -251 174 -218 118 -153 c 0
 74 -102 52 -40 52 34 c 0
 52 118 76 193 124 260 c 0
 140 283 171 311 216 346 c 1
 203 347 183 346 157 342 c 0
 110 335 72 325 42 312 c 1
 42 424 l 1
 134 445 213 456 278 455 c 0
 375 455 457 446 522 428 c 1
 522 331 l 1
 499 333 481 333 468 330 c 1
 465 317 463 303 463 288 c 0
 463 249 481 209 518 168 c 0
 550 131 582 112 614 112 c 6
EndSplineSet
Colour: ffff
EndChar

StartChar: uniFEA3
Encoding: 65187 65187 38
Width: 613
Flags: W
AnchorPoint: "rtl-below" 170 -58 basechar 0
AnchorPoint: "rtl-above" 155 570 basechar 0
LayerCount: 2
Fore
SplineSet
418 270 m 1
 403 274 374 281 330 292 c 0
 311 296 267 301 198 308 c 0
 170 311 129 311 76 308 c 1
 76 430 l 1
 100 433 125 434 150 434 c 0
 206 434 262 428 317 416 c 0
 397 399 477 373 556 339 c 1
 556 218 l 1
 540 207 511 193 468 176 c 0
 449 168 416 145 368 106 c 0
 333 78 287 53 228 30 c 0
 175 10 116 0 52 0 c 2
 -12 0 l 1
 -12 112 l 1
 38 112 l 2
 78 112 131 125 198 152 c 0
 239 168 275 187 306 208 c 0
 326 221 363 242 418 270 c 1
EndSplineSet
Colour: ffff
EndChar

StartChar: uniFEA4
Encoding: 65188 65188 39
Width: 613
Flags: W
AnchorPoint: "rtl-below" 156 -76 basechar 0
AnchorPoint: "rtl-above" 153 576 basechar 0
LayerCount: 2
Fore
SplineSet
416 142 m 1
 407 134 391 122 368 106 c 0
 325 75 279 50 228 30 c 0
 176 10 117 0 52 0 c 2
 -12 0 l 1
 -12 112 l 1
 38 112 l 2
 78 112 131 125 198 152 c 0
 239 168 275 187 306 208 c 0
 326 221 363 242 418 270 c 1
 403 274 374 281 330 292 c 0
 311 296 267 301 198 308 c 0
 170 311 129 311 76 308 c 1
 76 430 l 1
 100 433 125 434 150 434 c 0
 203 435 259 429 317 416 c 0
 397 399 477 373 556 339 c 1
 556 218 l 1
 544 211 529 204 510 196 c 1
 518 183 527 170 537 158 c 0
 564 127 587 112 606 112 c 2
 636 112 l 1
 636 0 l 1
 596 0 l 2
 543 0 496 27 456 82 c 0
 436 109 423 129 416 142 c 1
EndSplineSet
Colour: ffff
EndChar

StartChar: uniFEA9
Encoding: 65193 65193 44
Width: 613
Flags: W
AnchorPoint: "rtl-below" 298 -68 basechar 0
AnchorPoint: "rtl-above" 209 566 basechar 0
LayerCount: 2
Fore
SplineSet
296 106 m 0
 355 123 389 149 400 186 c 0
 403 195 404 207 404 220 c 0
 404 251 394 283 374 318 c 0
 351 357 311 406 254 467 c 1
 418 467 l 1
 454 432 484 392 507 348 c 0
 534 297 548 254 548 219 c 0
 548 154 532 102 500 61 c 0
 469 20 406 -5 311 -16 c 0
 292 -19 268 -20 241 -19 c 0
 190 -19 148 -13 114 0 c 1
 114 122 l 1
 153 108 194 101 238 101 c 0
 265 102 285 103 296 106 c 0
EndSplineSet
Colour: ffff
EndChar

StartChar: uniFEAA
Encoding: 65194 65194 45
Width: 613
Flags: W
AnchorPoint: "rtl-below" 252 -82 basechar 0
AnchorPoint: "rtl-above" 249 606 basechar 0
LayerCount: 2
Fore
SplineSet
548 219 m 0
 548 198 541 145 581 121 c 0
 590 116 599 112 610 112 c 2
 624 112 l 1
 624 0 l 1
 583 0 l 2
 558 0 530 20 500 61 c 1
 469 20 406 -5 311 -16 c 0
 292 -19 268 -20 241 -19 c 0
 190 -19 148 -13 114 0 c 1
 114 122 l 1
 153 108 194 101 238 101 c 0
 265 102 285 103 296 106 c 0
 353 121 388 148 400 186 c 0
 403 195 404 207 404 220 c 0
 404 251 394 283 374 318 c 0
 351 357 311 406 254 467 c 1
 418 467 l 1
 454 432 484 392 507 348 c 0
 533 301 548 258 548 219 c 0
EndSplineSet
Colour: ffff
EndChar

StartChar: uniFEAD
Encoding: 65197 65197 48
Width: 613
Flags: W
AnchorPoint: "rtl-below" 277 -274 basechar 0
AnchorPoint: "rtl-above" 235 488 basechar 0
LayerCount: 2
Fore
SplineSet
432 77 m 0
 435 96 436 118 436 142 c 0
 436 184 427 228 410 273 c 1
 552 273 l 1
 569 234 577 192 577 148 c 0
 577 124 576 100 573 76 c 0
 561 -27 491 -113 362 -180 c 0
 277 -228 147 -252 -28 -252 c 1
 -28 -130 l 1
 123 -130 233 -109 304 -66 c 0
 381 -19 424 28 432 77 c 0
EndSplineSet
Colour: ffff
EndChar

StartChar: uniFEAE
Encoding: 65198 65198 49
Width: 613
Flags: W
AnchorPoint: "rtl-below" 230 -264 basechar 0
AnchorPoint: "rtl-above" 117 524 basechar 0
LayerCount: 2
Fore
SplineSet
356 275 m 5
 498 275 l 1
 506 258 511 241 514 224 c 0
 521 185 530 155 543 135 c 0
 553 120 570 112 594 112 c 2
 624 112 l 1
 624 0 l 1
 567 0 l 2
 530 0 508 4 502 11 c 1
 473 -62 408 -125 308 -178 c 0
 219 -226 89 -250 -82 -250 c 1
 -82 -128 l 1
 69 -128 179 -107 250 -64 c 0
 327 -17 370 30 378 79 c 0
 381 98 382 120 382 144 c 0
 382 186 373 230 356 275 c 5
EndSplineSet
Colour: ffff
EndChar

StartChar: uniFEB1
Encoding: 65201 65201 52
Width: 613
Flags: W
AnchorPoint: "rtl-below" 292 -246 basechar 0
AnchorPoint: "rtl-above" 279 482 basechar 0
LayerCount: 2
Fore
SplineSet
234 14 m 1
 233 -15 228 -54 219 -101 c 0
 210 -142 196 -175 176 -200 c 0
 152 -231 115 -246 66 -246 c 0
 22 -246 -17 -229 -50 -196 c 0
 -83 -164 -100 -109 -100 -32 c 0
 -100 40 -91 100 -74 149 c 1
 40 149 l 1
 24 78 17 17 19 -32 c 0
 20 -72 27 -102 39 -122 c 0
 46 -134 55 -140 66 -140 c 128
 77 -140 89 -131 102 -112 c 0
 111 -100 118 -79 122 -48 c 0
 127 -12 130 34 130 90 c 0
 130 119 127 150 122 183 c 2
 101 300 l 1
 100 300 139 300 218 300 c 1
 228 222 l 2
 231 193 237 163 246 132 c 0
 253 109 262 98 275 98 c 128
 288 98 297 116 304 152 c 0
 309 176 312 225 311 300 c 1
 428 300 l 1
 428 231 433 174 444 130 c 0
 451 105 459 92 470 92 c 0
 486 92 494 137 494 228 c 2
 494 375 l 1
 614 375 l 1
 614 204 l 2
 614 127 603 71 581 36 c 0
 570 19 556 7 538 0 c 0
 514 -9 491 -14 470 -14 c 0
 445 -14 425 -6 410 11 c 0
 389 34 376 56 372 76 c 1
 371 60 363 41 348 18 c 0
 336 -1 311 -10 274 -9 c 0
 257 -8 243 -1 234 14 c 1
EndSplineSet
Substitution2: "Forms before tail fragment-1" uniFEB1.alt
Colour: ffff
EndChar

StartChar: uniFEB2
Encoding: 65202 65202 53
Width: 613
Flags: W
AnchorPoint: "rtl-below" 206 -262 basechar 0
AnchorPoint: "rtl-above" 227 476 basechar 0
LayerCount: 2
Fore
SplineSet
436 -14 m 28
 411 -14 391 -6 376 11 c 0
 355 34 342 56 338 76 c 1
 337 60 329 41 314 18 c 0
 302 -1 277 -10 240 -9 c 0
 223 -8 209 -1 200 14 c 1
 199 -15 194 -54 185 -101 c 0
 176 -142 162 -175 142 -200 c 0
 118 -231 81 -246 32 -246 c 0
 -12 -246 -51 -229 -84 -196 c 0
 -117 -164 -134 -109 -134 -32 c 0
 -134 40 -125 100 -108 149 c 1
 6 149 l 1
 -10 78 -17 17 -15 -32 c 0
 -14 -72 -7 -102 5 -122 c 0
 12 -134 21 -140 32 -140 c 0
 41 -140 53 -131 68 -112 c 0
 77 -100 84 -79 88 -48 c 0
 93 -12 96 34 96 90 c 0
 96 119 93 150 88 183 c 2
 67 300 l 1
 66 300 105 300 184 300 c 1
 194 222 l 2
 197 193 203 163 212 132 c 0
 219 109 228 98 241 98 c 128
 254 98 263 116 270 152 c 0
 275 176 278 225 277 300 c 1
 394 300 l 1
 394 231 399 174 410 130 c 0
 417 105 425 92 436 92 c 0
 452 92 460 137 460 228 c 2
 460 375 l 1
 580 375 l 1
 580 374 580 374 580 224 c 2
 580 169 587 135 602 121 c 0
 607 115 614 112 622 112 c 2
 626 112 l 1
 626 0 l 1
 595 0 l 2
 578 0 562 12 547 36 c 1
 536 19 522 7 504 0 c 0
 480 -9 457 -14 436 -14 c 28
EndSplineSet
Substitution2: "Forms before tail fragment-1" uniFEB2.alt
Colour: ffff
EndChar

StartChar: uniFEB3
Encoding: 65203 65203 54
Width: 613
Flags: W
AnchorPoint: "rtl-below" 186 -74 basechar 0
AnchorPoint: "rtl-above" 252 488 basechar 0
LayerCount: 2
Fore
SplineSet
275 98 m 16
 288 98 297 116 304 152 c 0
 309 176 312 225 311 300 c 1
 428 300 l 1
 428 231 433 174 444 130 c 0
 451 105 459 92 470 92 c 0
 486 92 494 137 494 228 c 2
 494 375 l 1
 614 375 l 1
 614 204 l 2
 614 127 603 71 581 36 c 0
 570 19 556 7 538 0 c 0
 514 -9 491 -14 470 -14 c 0
 445 -14 425 -6 410 11 c 0
 389 34 376 56 372 76 c 1
 371 60 363 41 348 18 c 0
 336 -1 311 -10 274 -9 c 24
 233 -8 205 -1 190 12 c 0
 165 33 151 51 148 66 c 1
 143 49 128 33 103 18 c 0
 83 6 56 0 23 0 c 2
 -12 0 l 1
 -12 112 l 1
 9 112 l 2
 30 112 47 118 59 130 c 0
 82 154 94 179 94 204 c 2
 94 300 l 1
 214 300 l 1
 214 222 l 2
 214 193 217 165 224 140 c 0
 231 112 248 98 275 98 c 16
EndSplineSet
Colour: ffff
EndChar

StartChar: uniFEB4
Encoding: 65204 65204 55
Width: 613
Flags: W
AnchorPoint: "rtl-below" 172 -74 basechar 0
AnchorPoint: "rtl-above" 219 479 basechar 0
LayerCount: 2
Fore
SplineSet
386 300 m 1
 386 231 391 174 402 130 c 0
 409 105 417 92 428 92 c 0
 444 92 452 137 452 228 c 2
 452 375 l 1
 572 375 l 1
 572 374 572 374 572 224 c 2
 572 169 579 135 594 121 c 0
 599 115 606 112 614 112 c 2
 626 112 l 1
 626 0 l 1
 587 0 l 2
 570 0 554 12 539 36 c 1
 528 19 514 7 496 0 c 0
 472 -9 449 -14 428 -14 c 24
 403 -14 383 -6 368 11 c 0
 347 34 334 56 330 76 c 1
 329 60 321 41 306 18 c 0
 294 -1 269 -10 232 -9 c 24
 191 -8 163 -1 148 12 c 0
 123 33 109 51 106 66 c 1
 94 41 84 25 77 18 c 0
 62 6 42 0 15 0 c 2
 -12 0 l 1
 -12 112 l 1
 2 112 l 2
 11 112 22 118 33 130 c 0
 46 143 52 168 52 204 c 2
 52 300 l 1
 172 300 l 1
 172 222 l 2
 172 193 175 165 182 140 c 0
 189 112 206 98 233 98 c 16
 246 98 255 116 262 152 c 0
 267 175 270 224 269 300 c 1
 386 300 l 1
EndSplineSet
Colour: ffff
EndChar

StartChar: uniFEB9
Encoding: 65209 65209 60
Width: 613
Flags: W
AnchorPoint: "rtl-below" 298 -242 basechar 0
AnchorPoint: "rtl-above" 193 472 basechar 0
LayerCount: 2
Fore
SplineSet
304 112 m 1
 368 112 l 2
 399 112 419 115 429 122 c 0
 450 137 460 150 460 162 c 0
 460 173 456 183 449 194 c 0
 442 203 430 208 413 207 c 0
 390 206 367 193 344 166 c 0
 325 143 312 125 304 112 c 1
205 180 m 1
 228 209 250 235 271 258 c 0
 315 305 363 327 416 326 c 0
 486 325 535 307 562 274 c 0
 591 237 606 201 606 168 c 0
 606 103 579 54 524 22 c 0
 499 7 453 0 387 0 c 2
 278 0 l 2
 266 0 251 5 233 15 c 0
 218 24 211 31 211 36 c 1
 210 8 204 -30 195 -78 c 0
 188 -114 167 -155 132 -200 c 0
 108 -231 71 -246 21 -246 c 0
 -23 -246 -62 -229 -95 -196 c 0
 -128 -164 -144 -109 -144 -32 c 0
 -144 40 -135 100 -118 149 c 1
 -4 149 l 1
 -20 78 -27 17 -26 -32 c 0
 -25 -72 -18 -102 -6 -122 c 0
 2 -134 11 -140 22 -140 c 0
 34 -140 47 -131 60 -112 c 0
 69 -101 77 -80 84 -48 c 0
 95 -1 97 45 92 90 c 0
 88 121 83 152 78 183 c 2
 73 225 l 1
 190 225 l 1
 196 212 201 197 205 180 c 1
EndSplineSet
Substitution2: "Forms before tail fragment-1" uniFEB9.alt
Colour: ffff
EndChar

StartChar: uniFEBA
Encoding: 65210 65210 61
Width: 613
Flags: W
AnchorPoint: "rtl-below" 362 -64 basechar 0
AnchorPoint: "rtl-above" 149 438 basechar 0
LayerCount: 2
Fore
SplineSet
277 112 m 1
 341 112 l 2
 372 112 392 115 402 122 c 0
 423 137 433 150 433 162 c 0
 433 173 429 183 422 194 c 0
 415 203 403 208 386 207 c 0
 363 206 340 193 317 166 c 0
 298 143 285 125 277 112 c 1
579 168 m 0
 580 155 579 145 576 140 c 1
 581 132 586 126 591 122 c 0
 600 115 607 112 612 112 c 2
 628 112 l 1
 628 0 l 1
 602 0 l 2
 585 0 563 9 538 28 c 2
 522 40 l 1
 491 6 416 0 360 0 c 2
 251 0 l 2
 239 0 224 5 206 15 c 0
 191 24 184 31 184 36 c 1
 183 8 177 -30 168 -78 c 0
 161 -114 140 -155 105 -200 c 0
 81 -231 44 -246 -6 -246 c 0
 -50 -246 -89 -229 -122 -196 c 0
 -155 -164 -172 -109 -172 -32 c 0
 -172 40 -163 100 -145 149 c 1
 -146 149 -108 149 -32 149 c 1
 -48 78 -55 17 -52 -32 c 0
 -51 -72 -44 -102 -32 -122 c 0
 -25 -134 -17 -140 -6 -140 c 0
 6 -140 19 -130 34 -112 c 0
 56 -86 68 -7 68 37 c 0
 68 55 66 72 64 90 c 0
 56 154 51 193 46 225 c 1
 163 225 l 1
 165 221 167 217 168 213 c 0
 172 203 175 192 178 180 c 1
 201 209 223 235 244 258 c 0
 288 305 336 327 389 326 c 0
 459 325 508 307 535 274 c 0
 564 237 579 201 579 168 c 0
EndSplineSet
Colour: ffff
EndChar

StartChar: uniFEBB
Encoding: 65211 65211 62
Width: 613
Flags: W
AnchorPoint: "rtl-below" 202 -56 basechar 0
AnchorPoint: "rtl-above" 189 458 basechar 0
LayerCount: 2
Fore
SplineSet
304 112 m 1
 368 112 l 2
 399 112 419 115 429 122 c 0
 450 137 460 150 460 162 c 0
 460 173 456 183 449 194 c 0
 442 203 430 208 413 207 c 0
 390 206 367 193 344 166 c 0
 325 143 312 125 304 112 c 1
278 0 m 2
 220 0 184 3 169 8 c 0
 148 15 132 24 120 36 c 1
 96 8 51 0 16 0 c 2
 -18 0 l 1
 -18 112 l 1
 3 112 l 2
 16 112 30 119 43 132 c 0
 59 148 67 172 67 204 c 2
 67 261 l 1
 66 261 106 261 186 261 c 1
 186 222 l 2
 186 196 189 180 196 173 c 1
 220 205 245 233 271 258 c 0
 320 305 369 327 416 326 c 0
 486 325 535 307 562 274 c 0
 591 237 606 201 606 168 c 0
 606 103 579 54 524 22 c 0
 499 7 453 0 387 0 c 2
 278 0 l 2
EndSplineSet
Colour: ffff
EndChar

StartChar: uniFEBC
Encoding: 65212 65212 63
Width: 613
Flags: W
AnchorPoint: "rtl-below" 174 -62 basechar 0
AnchorPoint: "rtl-above" 159 474 basechar 0
LayerCount: 2
Fore
SplineSet
285 112 m 1
 350 112 l 2
 381 112 401 115 410 122 c 0
 431 137 442 150 442 162 c 0
 442 173 438 183 430 194 c 0
 423 203 411 208 394 207 c 24
 371 206 349 193 326 166 c 0
 307 143 294 125 285 112 c 1
260 0 m 2
 206 0 170 3 151 8 c 0
 124 15 108 21 102 28 c 1
 82 3 50 0 16 0 c 2
 -18 0 l 1
 -18 112 l 1
 3 112 l 2
 16 112 27 118 34 130 c 0
 43 146 48 171 48 204 c 2
 48 261 l 1
 168 261 l 1
 168 222 l 2
 168 196 171 180 178 173 c 1
 201 205 225 233 252 258 c 0
 301 305 350 327 398 326 c 24
 467 325 516 307 543 274 c 0
 572 237 587 201 587 168 c 0
 587 155 586 145 584 140 c 1
 588 131 592 125 597 122 c 0
 604 115 609 112 612 112 c 2
 630 112 l 1
 630 0 l 1
 605 0 l 2
 582 0 561 9 544 26 c 2
 530 40 l 1
 492 8 440 0 369 0 c 2
 260 0 l 2
EndSplineSet
Substitution2: "Forms before tail fragment-1" uniFEBC.alt
Colour: ffff
EndChar

StartChar: uniFEC1
Encoding: 65217 65217 68
Width: 613
Flags: W
AnchorPoint: "rtl-below" 190 -52 basechar 0
AnchorPoint: "rtl-above" 149 866 basechar 0
LayerCount: 2
Fore
SplineSet
298 112 m 1
 363 112 l 2
 389 112 409 117 424 128 c 0
 444 143 454 157 454 172 c 0
 454 183 451 193 444 203 c 0
 437 212 425 217 408 217 c 0
 383 217 360 202 339 172 c 0
 315 136 301 116 298 112 c 1
382 0 m 2
 112 0 l 1
 3 0 l 1
 3 112 l 1
 112 112 l 1
 112 778 l 1
 258 778 l 1
 258 246 l 1
 275 268 293 286 312 300 c 0
 342 321 375 332 411 332 c 0
 474 332 523 315 556 280 c 0
 585 249 600 214 600 174 c 0
 600 119 569 74 508 38 c 0
 467 13 425 0 382 0 c 2
EndSplineSet
Colour: ffff
EndChar

StartChar: uniFEC2
Encoding: 65218 65218 69
Width: 613
Flags: W
AnchorPoint: "rtl-below" 158 -58 basechar 0
AnchorPoint: "rtl-above" 85 870 basechar 0
LayerCount: 2
Fore
SplineSet
266 112 m 1
 331 112 l 2
 357 112 377 117 392 128 c 0
 412 143 422 157 422 172 c 0
 422 183 419 193 412 203 c 0
 405 212 393 217 376 217 c 0
 351 217 328 202 307 172 c 0
 283 136 269 116 266 112 c 1
568 174 m 0
 568 154 567 141 565 136 c 1
 575 120 587 112 602 112 c 2
 625 112 l 1
 625 0 l 1
 571 0 l 2
 547 0 524 13 501 40 c 2
 493 49 l 1
 454 16 407 0 350 0 c 2
 80 0 l 1
 -2 0 l 1
 -2 112 l 1
 80 112 l 1
 80 778 l 1
 226 778 l 1
 226 246 l 1
 243 268 261 286 280 300 c 0
 310 321 343 332 379 332 c 0
 441 332 489 315 524 280 c 0
 553 251 568 215 568 174 c 0
EndSplineSet
Colour: ffff
EndChar

StartChar: uniFEC3
Encoding: 65219 65219 70
Width: 613
Flags: W
AnchorPoint: "rtl-below" 174 -60 basechar 0
AnchorPoint: "rtl-above" 110 890 basechar 0
LayerCount: 2
Fore
SplineSet
298 112 m 1
 363 112 l 2
 389 112 409 117 424 128 c 0
 444 143 454 157 454 172 c 0
 454 183 451 193 444 203 c 0
 437 212 425 217 408 217 c 0
 383 217 360 202 339 172 c 0
 315 136 301 116 298 112 c 1
382 0 m 2
 112 0 l 1
 -26 0 l 1
 -26 112 l 1
 112 112 l 1
 112 778 l 1
 258 778 l 1
 258 246 l 1
 275 268 293 286 312 300 c 0
 342 321 375 332 411 332 c 0
 474 332 523 315 556 280 c 0
 585 249 600 214 600 174 c 0
 600 119 569 74 508 38 c 0
 467 13 425 0 382 0 c 2
EndSplineSet
Colour: ffff
EndChar

StartChar: uniFEC4
Encoding: 65220 65220 71
Width: 613
Flags: W
AnchorPoint: "rtl-below" 156 -60 basechar 0
AnchorPoint: "rtl-above" 81 884 basechar 0
LayerCount: 2
Fore
SplineSet
266 112 m 1
 331 112 l 2
 357 112 377 117 392 128 c 0
 412 143 422 157 422 172 c 0
 422 183 419 193 412 203 c 0
 405 212 393 217 376 217 c 0
 351 217 328 202 307 172 c 0
 283 136 269 116 266 112 c 1
568 174 m 0
 568 151 567 139 565 136 c 1
 575 120 587 112 602 112 c 2
 625 112 l 1
 625 0 l 1
 571 0 l 2
 547 0 524 13 501 40 c 2
 493 49 l 1
 454 16 407 0 350 0 c 2
 80 0 l 1
 -20 0 l 1
 -20 112 l 1
 80 112 l 1
 80 778 l 1
 226 778 l 1
 226 246 l 1
 243 268 261 286 280 300 c 4
 310 321 343 332 379 332 c 0
 444 332 492 315 524 280 c 0
 553 248 568 213 568 174 c 0
EndSplineSet
Colour: ffff
EndChar

StartChar: uniFEC9
Encoding: 65225 65225 76
Width: 613
Flags: W
AnchorPoint: "rtl-below" 270 -292 basechar 0
AnchorPoint: "rtl-above" 217 650 basechar 0
LayerCount: 2
Fore
SplineSet
194 -55 m 0
 237 -110 294 -138 365 -138 c 0
 452 -138 531 -118 602 -78 c 1
 602 -200 l 1
 552 -233 474 -250 367 -250 c 0
 233 -250 138 -219 83 -156 c 0
 50 -119 34 -67 34 0 c 0
 34 69 49 121 78 154 c 0
 138 224 l 1
 126 224 110 236 90 260 c 128
 70 284 60 311 60 340 c 0
 60 395 82 439 126 472 c 0
 195 525 285 555 394 562 c 1
 394 454 l 1
 327 447 276 430 239 402 c 0
 216 384 204 367 204 350 c 0
 204 326 209 311 218 306 c 0
 231 298 245 294 262 294 c 0
 277 294 290 297 302 304 c 0
 349 327 417 342 508 349 c 1
 508 348 508 348 508 238 c 1
 411 229 326 200 254 151 c 0
 201 115 174 65 174 0 c 0
 174 -19 181 -38 194 -55 c 0
EndSplineSet
Colour: ffff
EndChar

StartChar: uniFECA
Encoding: 65226 65226 77
Width: 613
Flags: W
AnchorPoint: "rtl-below" 250 -278 basechar 0
AnchorPoint: "rtl-above" 259 500 basechar 0
LayerCount: 2
Fore
SplineSet
40 0 m 0
 40 86 112 136 156 166 c 1
 143 175 127 191 110 214 c 0
 90 239 80 260 80 279 c 0
 80 293 84 309 91 328 c 0
 98 348 120 367 157 384 c 0
 188 399 227 406 272 406 c 0
 325 406 366 399 395 384 c 0
 428 367 448 349 455 330 c 0
 460 317 462 300 462 279 c 0
 462 263 450 243 427 220 c 0
 410 203 384 183 349 162 c 1
 375 144 399 131 422 123 c 0
 442 116 475 113 520 113 c 2
 632 113 l 1
 632 0 l 1
 528 0 l 2
 415 0 319 31 239 93 c 1
 202 67 183 36 183 0 c 0
 182 -25 190 -49 206 -72 c 0
 234 -112 303 -132 412 -132 c 0
 476 -132 543 -113 614 -74 c 1
 614 -200 l 1
 563 -233 497 -249 414 -250 c 0
 261 -251 156 -219 100 -152 c 0
 59 -104 39 -53 40 0 c 0
272 288 m 0
 265 288 259 287 254 286 c 0
 241 281 234 275 234 269 c 0
 234 261 242 248 260 228 c 1
 297 246 313 258 313 273 c 0
 313 278 305 282 290 286 c 0
 285 287 279 288 272 288 c 0
EndSplineSet
Colour: ffff
EndChar

StartChar: uniFECB
Encoding: 65227 65227 78
Width: 613
Flags: W
AnchorPoint: "rtl-below" 174 -44 basechar 0
AnchorPoint: "rtl-above" 219 676 basechar 0
LayerCount: 2
Fore
SplineSet
28 112 m 2
 79 112 134 126 194 154 c 1
 173 158 148 173 121 198 c 0
 84 231 66 272 66 320 c 0
 66 411 104 474 180 510 c 0
 233 535 304 551 392 558 c 1
 392 439 l 1
 326 431 274 416 237 394 c 0
 212 379 200 360 200 337 c 0
 200 312 215 285 244 258 c 0
 263 241 293 232 336 232 c 0
 353 232 375 237 400 248 c 2
 506 293 l 1
 506 160 l 1
 296 62 l 2
 208 21 120 0 32 0 c 2
 -12 0 l 1
 -12 112 l 1
 28 112 l 2
EndSplineSet
Colour: ffff
EndChar

StartChar: uniFECC
Encoding: 65228 65228 79
Width: 613
Flags: W
AnchorPoint: "rtl-below" 302 -46 basechar 0
AnchorPoint: "rtl-above" 306 578 basechar 0
LayerCount: 2
Fore
SplineSet
305 66 m 1
 251 22 207 0 172 0 c 2
 -12 0 l 1
 -12 112 l 1
 97 112 l 2
 126 113 152 119 175 128 c 0
 189 134 201 140 213 149 c 1
 184 178 159 207 136 237 c 0
 125 250 120 264 120 279 c 0
 120 303 126 323 138 338 c 0
 152 357 173 372 202 384 c 0
 237 399 272 406 306 406 c 0
 341 406 375 399 410 384 c 0
 442 369 463 355 474 340 c 0
 486 323 492 303 492 279 c 0
 492 262 487 248 476 237 c 0
 448 206 422 177 397 152 c 1
 409 142 422 134 437 128 c 4
 459 119 485 114 515 112 c 2
 514 112 551 112 624 112 c 1
 624 0 l 1
 440 0 l 2
 405 0 360 22 305 66 c 1
306 288 m 0
 293 288 283 287 278 285 c 0
 270 280 266 275 266 268 c 0
 266 263 279 247 306 222 c 1
 333 247 346 263 346 268 c 0
 346 276 342 282 334 285 c 0
 327 287 318 288 306 288 c 0
EndSplineSet
Colour: ffff
EndChar

StartChar: uniFED9
Encoding: 65241 65241 92
Width: 613
Flags: W
AnchorPoint: "rtl-below" 260 -96 basechar 0
AnchorPoint: "rtl-above" 241 772 basechar 0
LayerCount: 2
Fore
SplineSet
316 569 m 1
 316 509 l 1
 289 508 271 505 260 500 c 0
 237 491 226 480 225 468 c 0
 225 464 230 458 239 450 c 0
 244 445 254 442 268 441 c 0
 316 436 340 411 340 367 c 0
 340 330 322 303 287 286 c 0
 258 273 227 266 194 266 c 0
 171 266 151 268 132 271 c 1
 132 335 l 1
 155 332 174 330 189 330 c 0
 212 330 232 334 248 343 c 0
 259 348 264 355 264 364 c 0
 264 375 256 382 240 385 c 0
 211 391 190 399 178 410 c 0
 159 429 149 449 149 472 c 0
 149 506 165 531 196 546 c 0
 224 559 264 566 316 569 c 1
440 140 m 0
 457 165 466 221 466 306 c 2
 466 778 l 1
 606 778 l 1
 606 306 l 2
 606 173 591 91 562 61 c 0
 518 15 485 -12 464 -20 c 0
 413 -37 351 -46 278 -47 c 0
 219 -47 163 -38 110 -20 c 0
 38 5 2 55 2 130 c 0
 2 155 5 177 10 194 c 1
 146 194 l 1
 141 173 139 156 140 143 c 0
 141 117 163 95 207 78 c 0
 230 69 253 64 276 65 c 0
 321 65 358 74 385 92 c 0
 412 109 430 125 440 140 c 0
EndSplineSet
Colour: ffff
EndChar

StartChar: uniFEDA
Encoding: 65242 65242 93
Width: 613
Flags: W
AnchorPoint: "rtl-below" 212 -90 basechar 0
AnchorPoint: "rtl-above" 212 776 basechar 0
LayerCount: 2
Fore
SplineSet
262 569 m 1
 262 509 l 1
 235 508 217 505 206 500 c 0
 183 491 172 480 171 468 c 0
 171 464 176 458 185 450 c 0
 190 445 200 442 214 441 c 0
 262 436 286 411 286 367 c 0
 286 330 268 303 233 286 c 0
 204 273 173 266 140 266 c 0
 117 266 97 268 78 271 c 1
 78 335 l 1
 101 332 120 330 135 330 c 0
 158 330 178 334 194 343 c 0
 205 348 210 355 210 364 c 0
 210 375 202 382 186 385 c 0
 157 391 136 399 124 410 c 0
 105 429 95 449 95 472 c 0
 95 506 111 531 142 546 c 0
 170 559 210 566 262 569 c 1
552 778 m 1
 552 192 l 2
 552 171 560 152 576 135 c 0
 591 120 600 113 604 113 c 2
 634 113 l 1
 634 0 l 1
 577 0 l 2
 548 0 520 14 495 42 c 1
 470 14 441 -7 410 -20 c 0
 367 -37 305 -46 224 -47 c 0
 165 -47 109 -38 56 -20 c 0
 -16 5 -52 55 -52 130 c 0
 -52 155 -49 177 -44 194 c 1
 92 194 l 1
 87 173 85 156 86 143 c 0
 87 117 109 95 153 78 c 0
 176 69 199 64 222 65 c 0
 267 65 304 74 331 92 c 0
 358 109 376 125 386 140 c 0
 403 165 412 221 412 306 c 2
 412 778 l 1
 552 778 l 1
EndSplineSet
Colour: ffff
EndChar

StartChar: uniFEDB
Encoding: 65243 65243 94
Width: 613
Flags: W
AnchorPoint: "rtl-below" 176 -72 basechar 0
AnchorPoint: "rtl-above" 152 776 basechar 0
LayerCount: 2
Fore
SplineSet
199 0 m 2
 -12 0 l 1
 -12 112 l 1
 189 112 l 2
 240 112 273 127 286 158 c 0
 291 170 294 182 294 194 c 0
 294 207 285 225 266 248 c 2
 138 405 l 2
 100 452 81 487 81 510 c 0
 81 520 83 531 86 544 c 0
 95 580 120 606 159 623 c 2
 160 623 284 675 532 778 c 1
 532 644 l 1
 278 542 l 2
 255 533 241 524 236 514 c 0
 234 510 233 506 234 502 c 0
 235 490 248 469 273 440 c 2
 384 308 l 2
 418 268 435 227 435 184 c 0
 435 147 425 111 404 78 c 0
 373 26 304 0 199 0 c 2
EndSplineSet
Colour: ffff
EndChar

StartChar: uniFEDC
Encoding: 65244 65244 95
Width: 613
Flags: W
AnchorPoint: "rtl-below" 188 -64 basechar 0
AnchorPoint: "rtl-above" 154 776 basechar 0
LayerCount: 2
Fore
SplineSet
208 0 m 2
 -17 0 l 1
 -17 112 l 1
 198 112 l 2
 249 112 281 127 294 158 c 0
 299 170 302 182 302 194 c 0
 302 207 293 225 276 248 c 2
 147 405 l 2
 109 452 90 487 90 510 c 0
 90 520 92 531 95 544 c 0
 104 580 129 606 168 623 c 2
 540 778 l 1
 540 644 l 1
 288 542 l 2
 264 533 250 524 245 513 c 0
 243 510 243 506 243 502 c 0
 244 490 257 469 282 440 c 2
 530 141 l 2
 537 132 547 126 560 121 c 0
 575 116 591 113 610 113 c 2
 633 113 l 1
 633 0 l 1
 592 0 l 2
 565 0 541 2 520 6 c 0
 484 13 457 25 440 44 c 2
 406 82 l 0
 394 65 l 0
 365 22 303 0 208 0 c 2
EndSplineSet
Colour: ffff
EndChar

StartChar: uniFEDD
Encoding: 65245 65245 96
Width: 613
Flags: W
AnchorPoint: "rtl-below" 236 -212 basechar 0
AnchorPoint: "rtl-above" 285 782 basechar 0
LayerCount: 2
Fore
SplineSet
420 36 m 0
 431 71 436 130 436 213 c 2
 436 778 l 1
 580 778 l 1
 580 213 l 2
 580 122 571 46 554 -15 c 0
 538 -73 505 -117 454 -148 c 0
 414 -172 355 -184 278 -185 c 0
 194 -186 134 -173 98 -148 c 0
 33 -103 -1 -41 -2 38 c 0
 -2 83 4 121 16 152 c 1
 166 152 l 1
 150 113 142 75 142 38 c 0
 142 3 158 -23 190 -40 c 0
 218 -55 247 -62 278 -62 c 0
 314 -62 343 -54 366 -39 c 0
 393 -22 411 3 420 36 c 0
EndSplineSet
Colour: ffff
EndChar

StartChar: uniFEDE
Encoding: 65246 65246 97
Width: 613
Flags: W
AnchorPoint: "rtl-below" 254 -232 basechar 0
AnchorPoint: "rtl-above" 189 776 basechar 0
LayerCount: 2
Fore
SplineSet
542 778 m 1
 542 192 l 2
 542 167 551 147 568 134 c 0
 587 119 601 112 611 112 c 2
 635 112 l 1
 635 0 l 1
 636 0 619 0 584 0 c 2
 559 0 539 9 526 28 c 1
 521 -5 514 -32 503 -55 c 24
 486 -94 456 -124 416 -148 c 128
 376 -172 317 -184 240 -185 c 0
 156 -186 96 -173 60 -148 c 0
 -7 -101 -40 -39 -40 38 c 0
 -40 83 -34 121 -22 152 c 1
 129 152 l 1
 113 113 105 75 105 38 c 0
 105 3 121 -23 153 -40 c 0
 180 -55 209 -62 240 -62 c 0
 276 -62 306 -54 329 -39 c 0
 356 -22 374 3 383 36 c 0
 393 71 398 130 398 213 c 2
 398 778 l 1
 542 778 l 1
EndSplineSet
Colour: ffff
EndChar

StartChar: uniFEDF
Encoding: 65247 65247 98
Width: 613
Flags: W
AnchorPoint: "rtl-below" 260 -66 basechar 0
AnchorPoint: "rtl-above" 189 776 basechar 0
LayerCount: 2
Fore
SplineSet
523 206 m 2
 523 133 509 79 480 46 c 0
 453 15 386 0 279 0 c 2
 -12 0 l 1
 -12 112 l 1
 225 112 l 2
 298 112 341 119 356 134 c 0
 372 150 380 176 380 212 c 2
 380 778 l 1
 523 778 l 1
 523 206 l 2
EndSplineSet
Colour: ffff
EndChar

StartChar: uniFEE0
Encoding: 65248 65248 99
Width: 613
Flags: W
AnchorPoint: "rtl-below" 300 -72 basechar 0
AnchorPoint: "rtl-above" 232 853 basechar 0
LayerCount: 2
Fore
SplineSet
301 36 m 1
 280 12 232 0 156 0 c 2
 -12 0 l 1
 -12 112 l 1
 102 112 l 2
 155 112 189 119 204 134 c 0
 220 151 228 177 229 212 c 2
 229 778 l 1
 374 778 l 1
 374 212 l 2
 374 176 382 150 398 134 c 0
 413 119 447 112 502 112 c 2
 624 112 l 1
 624 0 l 1
 448 0 l 2
 373 0 324 12 301 36 c 1
EndSplineSet
Colour: ffff
EndChar

StartChar: uniFEE1
Encoding: 65249 65249 100
Width: 613
Flags: W
AnchorPoint: "rtl-below" 388 -70 basechar 0
AnchorPoint: "rtl-above" 275 454 basechar 0
LayerCount: 2
Fore
SplineSet
324 148 m 1
 380 134 l 0
 396 134 407 138 412 145 c 0
 425 164 431 176 430 183 c 0
 429 196 428 203 427 205 c 0
 426 213 420 221 410 230 c 0
 399 239 386 244 370 244 c 0
 353 244 341 237 334 224 c 0
 324 205 319 191 319 182 c 0
 319 177 321 165 324 148 c 1
238 46 m 0
 209 59 190 60 181 52 c 128
 172 44 168 27 168 0 c 2
 168 -246 l 1
 28 -246 l 1
 28 0 l 2
 28 67 48 117 88 150 c 0
 109 169 140 178 180 178 c 1
 179 192 179 202 179 207 c 0
 179 258 200 300 242 334 c 0
 267 355 308 366 365 366 c 0
 397 366 429 359 462 346 c 0
 524 322 560 281 570 222 c 0
 573 207 574 191 574 172 c 0
 574 115 553 71 512 42 c 0
 480 19 442 8 399 8 c 0
 353 7 299 19 238 46 c 0
EndSplineSet
Colour: ffff
EndChar

StartChar: uniFEE2
Encoding: 65250 65250 101
Width: 613
Flags: W
AnchorPoint: "rtl-below" 338 -88 basechar 0
AnchorPoint: "rtl-above" 262 463 basechar 0
LayerCount: 2
Fore
SplineSet
294 120 m 1
 350 106 l 0
 366 106 377 110 382 118 c 0
 395 137 401 149 400 156 c 0
 399 169 398 177 397 178 c 0
 396 186 390 194 380 202 c 0
 369 211 356 216 340 216 c 0
 323 216 311 209 304 196 c 0
 294 176 289 162 289 154 c 0
 289 149 291 137 294 120 c 1
496 26 m 1
 491 21 486 17 482 14 c 24
 445 -9 408 -20 369 -20 c 0
 324 -21 270 -8 208 19 c 0
 179 32 160 34 151 25 c 128
 142 16 138 -1 138 -28 c 2
 138 -246 l 1
 -2 -246 l 1
 -2 -28 l 2
 -2 39 18 89 58 123 c 0
 79 141 110 150 150 150 c 1
 149 165 149 175 149 180 c 0
 149 231 170 273 212 306 c 0
 237 327 278 338 335 338 c 0
 367 338 399 331 432 318 c 0
 494 293 530 252 540 195 c 0
 540 192 541 175 544 144 c 0
 545 129 555 120 572 117 c 0
 585 114 598 112 609 112 c 2
 608 112 613 112 624 112 c 1
 624 0 l 1
 582 0 l 2
 535 0 507 9 496 26 c 1
EndSplineSet
Colour: ffff
EndChar

StartChar: uniFEE3
Encoding: 65251 65251 102
Width: 613
Flags: W
AnchorPoint: "rtl-below" 260 -92 basechar 0
AnchorPoint: "rtl-above" 249 446 basechar 0
LayerCount: 2
Fore
SplineSet
468 10 m 0
 436 -13 398 -24 354 -24 c 0
 281 -24 227 -6 193 30 c 1
 152 0 61 0 28 0 c 2
 -17 0 l 1
 -17 112 l 1
 28 112 l 2
 84 107 119 128 134 175 c 0
 143 228 165 270 198 302 c 0
 219 323 260 334 320 334 c 0
 352 334 385 327 418 314 c 0
 481 290 517 249 526 191 c 0
 529 176 530 159 530 140 c 0
 530 83 509 39 468 10 c 0
280 116 m 1
 296 109 315 105 336 102 c 0
 352 102 363 106 368 113 c 0
 381 132 387 144 386 151 c 0
 385 164 383 171 382 173 c 0
 381 181 375 189 366 198 c 0
 355 207 342 212 326 212 c 0
 309 212 297 205 290 192 c 0
 279 173 274 159 274 150 c 0
 274 145 276 133 280 116 c 1
EndSplineSet
Colour: ffff
EndChar

StartChar: uniFEE4
Encoding: 65252 65252 103
Width: 613
Flags: W
AnchorPoint: "rtl-below" 230 -96 basechar 0
AnchorPoint: "rtl-above" 229 453 basechar 0
LayerCount: 2
Fore
SplineSet
454 16 m 1
 410 -11 368 -24 329 -24 c 0
 256 -24 203 -6 168 30 c 1
 140 7 66 0 28 0 c 2
 -17 0 l 1
 -17 112 l 1
 28 112 l 2
 72 112 99 133 109 175 c 0
 124 233 145 275 172 302 c 0
 193 323 234 334 295 334 c 0
 327 334 359 327 392 314 c 0
 454 289 490 248 500 191 c 24
 504 167 513 146 528 128 c 0
 536 117 551 112 574 112 c 2
 624 112 l 1
 624 0 l 1
 547 0 l 2
 492 0 461 5 454 16 c 1
254 116 m 1
 270 109 289 105 310 102 c 0
 326 102 337 106 342 113 c 0
 355 132 361 144 360 151 c 0
 359 164 358 171 357 173 c 0
 356 181 350 189 340 198 c 0
 329 207 316 212 300 212 c 0
 283 212 271 205 264 192 c 0
 254 173 249 159 249 150 c 0
 249 145 251 133 254 116 c 1
EndSplineSet
Colour: ffff
EndChar

StartChar: uniFEE9
Encoding: 65257 65257 108
Width: 613
Flags: W
AnchorPoint: "rtl-below" 298 -66 basechar 0
AnchorPoint: "rtl-above" 233 476 basechar 0
LayerCount: 2
Fore
SplineSet
274 244 m 0
 259 244 247 234 240 213 c 0
 234 198 231 175 231 146 c 0
 231 127 237 113 250 102 c 128
 263 91 277 86 290 86 c 0
 311 86 333 93 355 106 c 0
 373 117 382 132 382 152 c 0
 382 171 374 187 358 202 c 0
 329 230 301 244 274 244 c 0
243 367 m 0
 326 367 397 340 458 287 c 0
 505 246 528 200 528 151 c 0
 528 84 503 38 454 11 c 0
 405 -16 347 -29 281 -29 c 0
 234 -30 197 -24 170 -12 c 0
 114 13 86 65 86 145 c 0
 86 204 92 247 104 274 c 0
 132 335 178 366 243 367 c 0
EndSplineSet
Colour: ffff
EndChar

StartChar: uniFEEA
Encoding: 65258 65258 109
Width: 613
Flags: W
AnchorPoint: "rtl-below" 208 -32 basechar 0
AnchorPoint: "rtl-above" 209 568 basechar 0
LayerCount: 2
Fore
SplineSet
330 180 m 1
 325 195 320 210 316 226 c 0
 312 243 308 268 304 301 c 1
 270 298 243 287 223 270 c 0
 187 239 169 215 170 198 c 0
 171 171 192 157 232 157 c 0
 263 157 295 165 330 180 c 1
296 405 m 1
 295 418 293 432 292 446 c 1
 432 446 l 1
 433 378 438 317 449 264 c 0
 458 223 471 189 490 162 c 0
 513 129 539 112 568 112 c 2
 624 112 l 1
 624 0 l 1
 508 0 l 2
 471 0 447 9 434 26 c 0
 434 26 434 26 396 77 c 1
 350 52 301 40 249 40 c 0
 241 40 222 43 192 48 c 0
 91 65 41 110 41 182 c 0
 42 251 83 312 166 364 c 0
 202 387 245 400 296 405 c 1
EndSplineSet
Colour: ffff
EndChar

StartChar: uniFEEB
Encoding: 65259 65259 110
Width: 613
Flags: W
AnchorPoint: "rtl-below" 178 -70 basechar 0
AnchorPoint: "rtl-above" 183 608 basechar 0
LayerCount: 2
Fore
SplineSet
220 162 m 1
 229 171 238 184 244 198 c 0
 250 213 254 229 254 246 c 0
 254 255 251 268 246 284 c 0
 242 297 235 303 226 303 c 0
 215 304 207 299 202 288 c 0
 195 273 191 261 191 252 c 0
 190 242 191 231 194 219 c 0
 198 201 207 182 220 162 c 1
60 112 m 2
 74 112 87 113 100 114 c 1
 89 137 80 160 75 184 c 0
 69 211 66 235 66 256 c 0
 66 279 73 304 87 331 c 0
 100 354 117 373 140 386 c 1
 127 390 116 393 109 394 c 1
 109 510 l 1
 212 490 302 446 379 379 c 0
 457 310 507 237 528 160 c 0
 533 143 536 124 536 105 c 0
 536 67 526 36 505 13 c 0
 472 -25 420 -44 351 -44 c 0
 292 -44 246 -26 188 8 c 1
 160 3 123 0 76 0 c 2
 -12 0 l 1
 -12 112 l 1
 60 112 l 2
372 226 m 1
 372 214 371 203 370 192 c 0
 365 158 352 125 326 94 c 0
 320 87 314 80 307 74 c 1
 318 69 331 66 347 66 c 0
 384 66 405 77 410 99 c 0
 413 109 414 119 413 130 c 0
 412 139 407 157 396 184 c 0
 391 197 383 211 372 226 c 1
EndSplineSet
Colour: ffff
EndChar

StartChar: uniFEEC
Encoding: 65260 65260 111
Width: 613
Flags: W
AnchorPoint: "rtl-below" 202 -280 basechar 0
AnchorPoint: "rtl-above" 207 484 basechar 0
LayerCount: 2
Fore
SplineSet
252 112 m 1
 262 112 l 2
 283 112 305 125 328 152 c 0
 351 177 362 201 362 222 c 0
 362 257 353 274 334 273 c 0
 315 273 294 251 271 207 c 0
 258 182 252 151 252 112 c 1
118 112 m 1
 121 170 140 248 204 326 c 0
 236 363 280 382 336 382 c 0
 396 382 439 366 464 334 c 0
 487 306 498 269 498 222 c 0
 498 187 483 151 452 112 c 1
 624 112 l 1
 624 0 l 1
 452 0 l 1
 483 -39 498 -75 498 -110 c 0
 498 -157 487 -194 464 -222 c 0
 439 -254 396 -270 336 -270 c 0
 280 -270 236 -251 204 -214 c 0
 164 -166 123 -94 118 0 c 1
 -12 0 l 1
 -12 112 l 1
 118 112 l 1
252 0 m 1
 252 -39 258 -70 271 -94 c 0
 294 -138 315 -160 334 -160 c 0
 353 -160 362 -143 362 -109 c 0
 362 -88 351 -65 328 -40 c 0
 304 -13 282 0 262 0 c 2
 252 0 l 1
EndSplineSet
Colour: ffff
EndChar

StartChar: uniFEED
Encoding: 65261 65261 112
Width: 613
Flags: W
AnchorPoint: "rtl-below" 284 -270 basechar 0
AnchorPoint: "rtl-above" 313 456 basechar 0
LayerCount: 2
Fore
SplineSet
380 211 m 0
 362 212 349 206 340 194 c 0
 332 183 328 172 328 159 c 0
 328 145 341 133 366 124 c 0
 386 116 413 112 446 112 c 1
 446 156 436 185 416 198 c 0
 404 206 392 210 380 211 c 0
584 92 m 0
 584 -3 555 -81 498 -142 c 0
 471 -170 441 -192 408 -207 c 0
 345 -236 221 -250 36 -250 c 1
 36 -128 l 1
 191 -128 287 -118 324 -98 c 0
 387 -63 425 -30 438 2 c 1
 421 2 394 3 357 6 c 0
 308 10 269 21 239 40 c 0
 200 64 181 103 181 158 c 0
 180 241 215 297 286 326 c 0
 305 334 332 338 369 338 c 0
 431 338 474 329 498 312 c 0
 540 281 566 238 575 181 c 0
 581 147 584 117 584 92 c 0
EndSplineSet
Colour: ffff
EndChar

StartChar: uniFEEE
Encoding: 65262 65262 113
Width: 613
Flags: W
AnchorPoint: "rtl-below" 202 -280 basechar 0
AnchorPoint: "rtl-above" 217 446 basechar 0
LayerCount: 2
Fore
SplineSet
408 112 m 1
 408 128 407 142 404 154 c 0
 399 175 391 190 378 198 c 0
 366 206 354 210 342 211 c 0
 324 212 311 206 302 194 c 0
 294 183 290 172 290 159 c 0
 290 145 303 133 328 124 c 0
 348 116 375 112 408 112 c 1
545 112 m 1
 544 112 571 112 624 112 c 1
 624 0 l 1
 536 0 l 1
 523 -55 497 -102 460 -142 c 0
 433 -170 403 -192 370 -207 c 0
 307 -236 183 -250 -2 -250 c 1
 -2 -128 l 1
 153 -128 249 -118 286 -98 c 0
 349 -63 387 -30 400 2 c 1
 383 2 356 3 319 6 c 0
 270 10 231 21 201 40 c 0
 162 64 143 103 143 158 c 0
 143 180 145 200 150 218 c 0
 163 268 196 304 248 326 c 0
 267 334 294 338 331 338 c 0
 393 338 436 329 460 312 c 0
 502 283 528 239 537 181 c 0
 541 155 544 132 545 112 c 1
EndSplineSet
Colour: ffff
EndChar

StartChar: uniFEEF
Encoding: 65263 65263 114
Width: 613
Flags: W
AnchorPoint: "rtl-below" 274 -210 basechar 0
AnchorPoint: "rtl-above" 273 522 basechar 0
LayerCount: 2
Fore
SplineSet
588 -24 m 24
 553 -74 519 -109 484 -129 c 0
 429 -160 354 -175 258 -175 c 0
 192 -175 139 -165 98 -145 c 0
 31 -112 -2 -43 -2 61 c 0
 -2 100 9 138 30 176 c 1
 171 176 l 1
 149 132 138 94 139 61 c 0
 140 8 155 -23 184 -30 c 0
 209 -37 236 -40 264 -40 c 0
 311 -40 349 -34 378 -22 c 0
 406 -11 427 4 442 23 c 0
 459 45 468 65 469 82 c 0
 469 98 466 110 461 118 c 0
 450 136 426 148 390 153 c 0
 314 164 276 210 277 290 c 0
 278 349 298 389 338 412 c 0
 373 432 409 442 448 442 c 0
 524 442 571 426 588 393 c 0
 605 358 614 321 614 282 c 1
 480 282 l 1
 480 302 478 314 473 319 c 0
 462 331 450 337 438 336 c 0
 430 336 421 332 412 323 c 0
 403 313 398 303 398 293 c 0
 398 268 419 251 460 243 c 0
 524 230 570 201 598 154 c 0
 609 135 614 110 614 78 c 0
 614 37 605 3 588 -24 c 24
EndSplineSet
Colour: ffff
EndChar

StartChar: uniFEF0
Encoding: 65264 65264 115
Width: 613
Flags: W
AnchorPoint: "rtl-below" 212 -214 basechar 0
AnchorPoint: "rtl-above" 227 362 basechar 0
LayerCount: 2
Fore
SplineSet
370 18 m 128
 370 26 367 33 361 38 c 24
 355 43 346 52 334 64 c 0
 318 80 310 105 310 138 c 0
 310 173 318 202 334 224 c 0
 350 245 371 261 397 270 c 0
 412 275 435 278 467 277 c 0
 496 277 521 269 542 252 c 0
 566 233 582 208 590 178 c 0
 599 134 609 112 618 112 c 2
 624 112 l 1
 624 0 l 1
 607 0 l 2
 550 0 514 29 499 86 c 0
 484 142 469 169 452 168 c 0
 448 168 444 166 440 161 c 0
 435 155 433 149 433 143 c 0
 433 139 440 130 454 116 c 0
 479 91 492 60 492 24 c 0
 492 -25 482 -59 461 -79 c 0
 436 -102 405 -123 368 -140 c 0
 316 -164 264 -176 212 -176 c 0
 171 -176 126 -170 78 -158 c 0
 3 -139 -37 -84 -42 9 c 0
 -43 40 -38 78 -26 124 c 1
 114 124 l 1
 105 97 100 65 100 26 c 0
 100 -11 119 -33 156 -40 c 0
 176 -44 195 -46 212 -46 c 0
 231 -46 257 -43 291 -36 c 0
 305 -33 322 -25 342 -12 c 0
 361 0 370 10 370 18 c 128
EndSplineSet
Colour: ffff
EndChar

StartChar: uniFEFB
Encoding: 65275 65275 126
Width: 613
Flags: W
AnchorPoint: "Ligature rtl-above" 110 751 baselig 1
AnchorPoint: "Ligature rtl-below" 412 -30 baselig 1
AnchorPoint: "Ligature rtl-above" 460 820 baselig 0
AnchorPoint: "Ligature rtl-below" 494 40 baselig 0
LayerCount: 2
Fore
SplineSet
552 417 m 2
 552 312 531 226 488 158 c 24
 468 126 445 97 418 72 c 0
 360 17 290 -10 208 -10 c 0
 173 -10 143 -5 118 6 c 9
 118 128 l 1
 150 117 180 112 208 112 c 0
 246 112 277 125 301 152 c 1
 52 705 l 1
 194 705 l 1
 194 704 257 565 384 286 c 1
 390 298 394 312 398 328 c 4
 405 357 407 393 407 435 c 2
 407 778 l 1
 408 778 408 778 552 778 c 1
 552 417 l 2
EndSplineSet
LCarets2: 1 0
Ligature2: "Lam-Alef ligature-1" uniFEDF uniFE8E
Colour: ffff
EndChar

StartChar: uniFEFC
Encoding: 65276 65276 127
Width: 613
Flags: W
AnchorPoint: "Ligature rtl-below" 438 -56 baselig 0
AnchorPoint: "Ligature rtl-above" 460 820 baselig 0
AnchorPoint: "Ligature rtl-below" 356 -64 baselig 1
AnchorPoint: "Ligature rtl-above" 110 751 baselig 1
LayerCount: 2
Fore
SplineSet
434 88 m 1
 417 70 399 53 379 40 c 0
 330 7 273 -9 208 -10 c 0
 173 -10 143 -5 118 6 c 1
 118 128 l 1
 150 117 180 112 208 112 c 0
 246 112 277 125 301 152 c 1
 52 705 l 1
 194 705 l 1
 194 704 257 565 384 286 c 1
 391 300 396 317 400 337 c 0
 405 365 407 397 407 435 c 2
 407 778 l 1
 408 778 408 778 552 778 c 1
 552 303 l 2
 552 212 557 168 565 145 c 0
 575 118 583 112 597 112 c 2
 624 112 l 1
 624 0 l 1
 560 0 l 2
 515 0 480 17 454 53 c 0
 447 63 440 75 434 88 c 1
EndSplineSet
LCarets2: 1 0
Ligature2: "Lam-Alef ligature-1" uniFEE0 uniFE8E
Colour: ffff
EndChar

StartChar: uni066E.isol
Encoding: 1114112 -1 128
Width: 613
Flags: W
LayerCount: 2
Fore
SplineSet
602 270 m 1
 607 240 609 206 609 168 c 0
 609 121 579 74 518 26 c 0
 481 -3 408 -18 300 -18 c 0
 219 -18 152 -9 100 8 c 0
 41 28 12 79 12 160 c 0
 12 188 16 219 24 253 c 1
 162 253 l 1
 153 216 148 185 148 160 c 0
 148 136 165 116 200 100 c 0
 217 92 250 88 297 88 c 0
 338 88 377 99 414 122 c 0
 453 146 472 173 472 202 c 0
 472 231 469 254 464 270 c 1
 602 270 l 1
EndSplineSet
Colour: ffff
EndChar

StartChar: uni066E.fina
Encoding: 1114113 -1 129
Width: 613
Flags: W
LayerCount: 2
Fore
SplineSet
300 -10 m 0
 228 -10 172 -3 133 10 c 0
 66 33 32 83 32 160 c 0
 32 193 37 224 47 253 c 1
 188 253 l 1
 179 226 174 199 174 170 c 0
 174 149 191 131 226 116 c 0
 239 111 262 108 295 108 c 0
 312 108 333 112 358 119 c 0
 387 127 407 137 419 150 c 0
 433 165 440 185 440 212 c 0
 440 241 437 260 432 270 c 1
 565 270 l 1
 571 245 574 217 574 188 c 0
 574 168 578 149 586 132 c 0
 592 119 599 112 608 112 c 2
 624 112 l 1
 624 0 l 1
 587 0 l 2
 565 0 548 5 537 14 c 0
 518 29 508 41 506 52 c 1
 494 39 468 26 429 12 c 0
 390 -3 347 -10 300 -10 c 0
EndSplineSet
Colour: ffff
EndChar

StartChar: uniFBE8
Encoding: 64488 64488 130
Width: 613
Flags: W
LayerCount: 2
Fore
SplineSet
327 43 m 0
 302 14 225 0 94 0 c 2
 -20 0 l 1
 -20 112 l 1
 67 112 l 2
 145 112 191 119 206 134 c 0
 222 150 230 176 231 212 c 2
 231 300 l 1
 373 300 l 1
 373 212 l 2
 373 136 358 80 327 43 c 0
EndSplineSet
Colour: ffff
EndChar

StartChar: uniFBE9
Encoding: 64489 64489 131
Width: 613
Flags: W
LayerCount: 2
Fore
SplineSet
301 36 m 1
 280 12 232 0 156 0 c 2
 -18 0 l 1
 -18 112 l 1
 102 112 l 2
 155 112 189 119 204 134 c 0
 220 150 228 176 229 212 c 2
 229 320 l 1
 374 320 l 1
 374 212 l 2
 374 176 382 150 398 134 c 0
 413 119 447 112 502 112 c 2
 630 112 l 1
 630 0 l 1
 448 0 l 2
 373 0 324 12 301 36 c 1
EndSplineSet
Colour: ffff
EndChar

StartChar: uni06A1.isol
Encoding: 1114114 -1 132
Width: 613
Flags: W
AnchorPoint: "rtl-below" 226 -104 basechar 0
AnchorPoint: "rtl-above" 271 544 basechar 0
LayerCount: 2
Fore
SplineSet
474 246 m 0
 481 256 484 267 484 280 c 0
 484 295 477 308 462 320 c 0
 451 328 439 332 424 332 c 0
 404 332 389 325 378 310 c 0
 370 300 366 290 367 280 c 0
 368 257 374 242 386 234 c 0
 398 226 411 222 426 222 c 0
 447 222 463 230 474 246 c 0
552 28 m 0
 527 -3 474 -28 394 -46 c 0
 334 -59 277 -66 222 -66 c 0
 171 -66 125 -59 84 -46 c 0
 -8 -15 -54 52 -55 157 c 0
 -55 203 -49 241 -38 272 c 1
 106 272 l 1
 94 241 88 202 88 157 c 0
 88 114 108 86 148 71 c 0
 177 60 202 54 222 54 c 0
 265 54 305 58 344 66 c 0
 377 73 403 83 422 96 c 0
 439 109 450 119 454 126 c 1
 443 121 427 118 405 118 c 0
 356 118 317 130 286 154 c 0
 245 186 224 225 224 270 c 0
 224 303 227 327 232 340 c 0
 247 379 274 407 314 424 c 0
 351 441 387 449 420 449 c 0
 452 449 483 442 512 429 c 0
 537 418 566 389 597 344 c 0
 608 327 614 295 614 248 c 0
 614 153 593 79 552 28 c 0
EndSplineSet
Colour: ffff
EndChar

StartChar: uni06A1.fina
Encoding: 1114115 -1 133
Width: 613
Flags: W
LayerCount: 2
Fore
SplineSet
440 13 m 1
 431 5 405 -5 362 -17 c 0
 290 -38 235 -48 197 -48 c 0
 132 -48 77 -39 33 -21 c 0
 -50 13 -91 72 -91 157 c 0
 -92 202 -87 240 -76 272 c 1
 58 272 l 1
 47 229 42 191 41 157 c 0
 41 122 60 96 99 81 c 0
 123 72 157 67 200 66 c 0
 229 66 269 76 320 96 c 1
 304 104 285 122 263 151 c 0
 234 186 220 218 220 247 c 0
 220 284 223 310 230 324 c 0
 245 355 272 379 312 398 c 0
 346 414 382 422 421 421 c 0
 472 421 511 413 538 396 c 0
 575 374 596 357 602 346 c 0
 615 323 622 286 622 237 c 0
 622 194 607 153 577 113 c 1
 581 113 581 113 585 113 c 2
 584 113 597 113 624 113 c 1
 624 0 l 1
 548 0 l 2
 503 0 467 4 440 13 c 1
440 148 m 1
 469 169 484 197 483 230 c 0
 482 241 481 252 480 261 c 0
 479 273 472 283 461 291 c 0
 450 300 437 304 424 304 c 0
 416 304 408 302 401 298 c 0
 382 289 371 277 366 263 c 0
 364 256 363 250 363 244 c 0
 364 230 367 217 374 206 c 0
 390 179 412 160 440 148 c 1
EndSplineSet
Colour: ffff
EndChar

StartChar: uni066F.isol
Encoding: 1114116 -1 134
Width: 613
Flags: W
LayerCount: 2
Fore
SplineSet
434 276 m 0
 447 285 454 303 455 328 c 0
 455 340 450 353 439 366 c 0
 428 379 413 385 396 385 c 0
 381 385 369 380 360 369 c 0
 349 357 344 343 343 328 c 0
 343 308 347 294 356 285 c 0
 371 271 385 264 398 264 c 128
 411 264 423 268 434 276 c 0
259 -98 m 0
 326 -98 378 -72 413 -21 c 0
 460 47 483 106 483 156 c 1
 471 145 439 139 388 139 c 0
 344 139 305 151 270 174 c 0
 221 207 196 255 196 318 c 0
 196 337 197 353 200 366 c 0
 215 435 252 483 311 510 c 0
 338 523 369 529 402 529 c 0
 456 529 497 517 524 493 c 0
 556 465 579 434 593 400 c 128
 607 366 614 310 614 232 c 0
 614 152 607 86 592 35 c 0
 565 -50 528 -115 480 -162 c 0
 429 -211 359 -236 270 -236 c 0
 197 -236 133 -217 79 -178 c 128
 25 -139 -2 -74 -2 18 c 0
 -2 89 6 146 22 188 c 1
 164 188 l 1
 147 124 138 77 137 46 c 0
 137 5 146 -27 164 -52 c 0
 187 -83 218 -98 259 -98 c 0
EndSplineSet
Colour: ffff
EndChar

StartChar: uni066F.fina
Encoding: 1114117 -1 135
Width: 613
Flags: W
LayerCount: 2
Fore
SplineSet
452 5 m 1
 423 8 399 11 378 14 c 0
 322 24 278 47 246 82 c 0
 211 121 194 161 194 200 c 0
 194 231 202 264 218 299 c 0
 226 317 246 335 278 354 c 0
 313 375 353 386 398 386 c 0
 446 386 476 383 488 378 c 0
 524 359 548 334 559 302 c 0
 570 269 577 205 580 112 c 1
 589 111 595 111 596 112 c 2
 624 112 l 1
 624 0 l 1
 593 0 l 1
 569 0 l 1
 564 -40 554 -74 537 -102 c 0
 506 -151 465 -189 414 -214 c 0
 370 -235 305 -246 220 -246 c 0
 113 -246 44 -214 14 -150 c 0
 -3 -114 -12 -70 -12 -18 c 0
 -12 22 -6 65 6 112 c 1
 144 112 l 1
 130 56 123 11 123 -22 c 0
 123 -49 131 -76 148 -101 c 0
 163 -124 195 -136 243 -136 c 0
 285 -136 322 -126 353 -106 c 0
 393 -81 426 -44 452 5 c 1
464 120 m 1
 465 156 463 186 458 210 c 0
 454 229 446 242 434 250 c 0
 423 258 411 262 400 262 c 0
 388 262 379 260 372 256 c 0
 356 249 347 241 344 234 c 0
 339 221 336 208 336 196 c 0
 336 183 344 169 360 156 c 24
 370 147 387 139 410 131 c 24
 432 123 450 119 464 120 c 1
EndSplineSet
Colour: ffff
EndChar

StartChar: uni066F.init
Encoding: 1114118 -1 136
Width: 613
Flags: W
LayerCount: 2
Fore
SplineSet
278 292 m 0
 286 301 290 313 290 328 c 0
 290 340 283 351 270 360 c 0
 263 365 256 368 248 368 c 0
 238 368 229 364 220 355 c 0
 212 346 208 336 208 327 c 0
 208 311 213 299 224 292 c 0
 232 287 240 284 249 284 c 0
 263 284 273 287 278 292 c 0
-12 112 m 1
 108 112 l 2
 187 112 235 117 254 128 c 0
 278 141 292 151 296 156 c 0
 309 171 312 183 306 194 c 1
 298 182 275 176 238 176 c 0
 180 176 137 187 110 210 c 0
 77 237 61 273 61 318 c 0
 61 333 62 349 65 366 c 0
 74 415 103 451 152 474 c 0
 178 486 212 492 253 492 c 0
 297 492 332 484 358 468 c 0
 378 455 397 435 414 406 c 0
 430 380 438 348 438 310 c 0
 438 225 427 158 404 110 c 0
 388 75 345 45 276 20 c 0
 240 7 197 0 148 0 c 2
 -12 0 l 1
 -12 112 l 1
EndSplineSet
Colour: ffff
EndChar

StartChar: uni066F.medi
Encoding: 1114119 -1 137
Width: 613
Flags: W
LayerCount: 2
Fore
SplineSet
392 408 m 0
 441 391 472 367 484 338 c 0
 493 317 497 284 496 240 c 0
 495 221 492 201 485 180 c 0
 480 165 463 146 434 122 c 1
 448 115 474 112 512 112 c 2
 624 112 l 1
 624 0 l 1
 467 0 l 2
 422 0 368 9 306 28 c 1
 245 9 191 0 146 0 c 2
 -12 0 l 1
 -12 112 l 1
 101 112 l 2
 140 112 166 115 178 120 c 1
 157 128 140 148 127 180 c 0
 120 195 117 215 117 240 c 0
 116 283 123 316 138 340 c 0
 159 375 185 397 214 406 c 0
 242 414 273 418 307 418 c 0
 344 418 372 415 392 408 c 0
306 305 m 0
 295 304 287 302 282 298 c 0
 274 291 268 284 264 277 c 0
 257 264 254 253 254 244 c 0
 254 232 258 221 266 212 c 0
 280 195 293 184 306 178 c 1
 317 186 329 197 342 212 c 0
 350 221 354 232 354 244 c 128
 354 256 352 267 348 278 c 0
 344 287 337 294 326 300 c 0
 321 303 314 305 306 305 c 0
EndSplineSet
Colour: ffff
EndChar

StartChar: uniFB9E
Encoding: 64414 64414 138
Width: 613
Flags: W
LayerCount: 2
Fore
SplineSet
598 128 m 0
 598 57 584 -4 556 -54 c 0
 536 -89 501 -119 450 -142 c 0
 417 -158 363 -166 290 -166 c 0
 235 -166 186 -155 142 -134 c 0
 53 -91 8 -26 8 63 c 0
 8 120 16 179 32 240 c 1
 176 240 l 1
 163 193 157 141 156 82 c 0
 155 38 176 4 218 -20 c 0
 243 -35 267 -42 290 -42 c 0
 325 -42 349 -39 363 -32 c 0
 401 -15 426 11 438 46 c 0
 449 79 455 112 455 144 c 0
 455 244 447 311 432 344 c 1
 578 344 l 1
 591 291 598 219 598 128 c 0
EndSplineSet
Colour: ffff
EndChar

StartChar: uniFB9F
Encoding: 64415 64415 139
Width: 613
Flags: W
LayerCount: 2
Fore
SplineSet
504 -136 m 0
 484 -171 449 -201 398 -224 c 0
 365 -240 311 -248 238 -248 c 0
 183 -248 134 -237 90 -216 c 0
 1 -173 -44 -107 -44 -19 c 0
 -44 38 -36 97 -20 158 c 1
 124 158 l 1
 111 111 105 59 104 0 c 0
 103 -44 124 -78 166 -102 c 0
 191 -117 215 -124 238 -124 c 0
 273 -124 297 -121 311 -114 c 0
 349 -97 374 -71 386 -36 c 0
 397 -3 403 30 403 62 c 0
 403 162 395 229 380 262 c 1
 526 262 l 1
 530 251 534 227 538 188 c 0
 541 169 549 149 564 128 c 0
 571 117 583 112 599 112 c 2
 625 112 l 1
 625 0 l 1
 578 0 l 2
 557 0 545 3 544 8 c 1
 540 -47 527 -95 504 -136 c 0
EndSplineSet
Colour: ffff
EndChar

StartChar: uniFEB1.alt
Encoding: 1114120 -1 140
Width: 613
Flags: W
AnchorPoint: "rtl-below" 292 -246 basechar 0
AnchorPoint: "rtl-above" 279 482 basechar 0
LayerCount: 2
Fore
SplineSet
234 14 m 1
 233 -15 228 -54 219 -101 c 0
 210 -142 196 -175 176 -200 c 0
 152 -231 49 -246 0 -246 c 1
 0 -140 l 1
 28 -140 88 -130 102 -112 c 0
 111 -100 118 -79 122 -48 c 0
 127 -12 130 34 130 90 c 0
 130 119 127 150 122 183 c 2
 101 300 l 1
 101 300 139 300 218 300 c 1
 228 222 l 2
 231 193 237 163 246 132 c 0
 253 109 262 98 275 98 c 0
 288 98 297 116 304 152 c 0
 309 176 312 225 311 300 c 1
 428 300 l 1
 428 231 433 174 444 130 c 0
 451 105 459 92 470 92 c 0
 486 92 494 137 494 228 c 2
 494 375 l 1
 614 375 l 1
 614 204 l 2
 614 127 603 71 581 36 c 0
 570 19 556 7 538 0 c 0
 514 -9 491 -14 470 -14 c 0
 445 -14 425 -6 410 11 c 0
 389 34 376 56 372 76 c 1
 371 60 363 41 348 18 c 0
 336 -1 311 -10 274 -9 c 0
 257 -8 243 -1 234 14 c 1
EndSplineSet
Colour: ffff
EndChar

StartChar: uniFEB2.alt
Encoding: 1114121 -1 141
Width: 613
Flags: W
AnchorPoint: "rtl-below" 206 -262 basechar 0
AnchorPoint: "rtl-above" 227 476 basechar 0
LayerCount: 2
Fore
SplineSet
436 -14 m 0
 411 -14 391 -6 376 11 c 0
 355 34 342 56 338 76 c 1
 337 60 329 41 314 18 c 0
 302 -1 277 -10 240 -9 c 0
 223 -8 209 -1 200 14 c 1
 199 -15 194 -54 185 -101 c 0
 176 -142 162 -175 142 -200 c 0
 118 -231 49 -246 0 -246 c 1
 0 -140 l 1
 21 -140 53 -131 68 -112 c 0
 77 -100 84 -79 88 -48 c 0
 93 -12 96 34 96 90 c 0
 96 119 93 150 88 183 c 2
 67 300 l 1
 67 300 105 300 184 300 c 1
 194 222 l 2
 197 193 203 163 212 132 c 0
 219 109 228 98 241 98 c 0
 254 98 263 116 270 152 c 0
 275 176 278 225 277 300 c 1
 394 300 l 1
 394 231 399 174 410 130 c 0
 417 105 425 92 436 92 c 0
 452 92 460 137 460 228 c 2
 460 375 l 1
 580 375 l 1
 580 374 580 374 580 224 c 0
 580 169 587 135 602 121 c 0
 607 115 614 112 622 112 c 2
 626 112 l 1
 626 0 l 1
 595 0 l 2
 578 0 562 12 547 36 c 1
 536 19 522 7 504 0 c 0
 480 -9 457 -14 436 -14 c 0
EndSplineSet
Colour: ffff
EndChar

StartChar: reserved
Encoding: 1114124 -1 144
Width: 613
Flags: W
LayerCount: 2
Fore
SplineSet
23 -198 m 1
 23 -59 47 66 47 237 c 2
 47 542 l 1
 156 542 l 1
 156 226 l 2
 156 192 156 163 171 136 c 0
 190 100 224 82 255 82 c 0
 291 82 327 105 346 146 c 0
 358 172 360 199 360 233 c 2
 360 542 l 1
 467 542 l 1
 467 144 l 2
 467 126 469 106 475 97 c 0
 484 84 490 82 499 82 c 0
 538 82 563 155 563 155 c 1
 614 64 l 1
 591 26 547 -12 492 -12 c 0
 445 -12 406 18 389 57 c 1
 355 13 304 -13 249 -13 c 0
 203 -13 159 7 129 38 c 1
 129 -20 128 -105 128 -198 c 1
 23 -198 l 1
EndSplineSet
EndChar

StartChar: uniFEB9.alt
Encoding: 1114125 -1 145
Width: 613
Flags: W
AnchorPoint: "rtl-below" 298 -242 basechar 0
AnchorPoint: "rtl-above" 193 472 basechar 0
LayerCount: 2
Fore
SplineSet
205 180 m 1
 228 209 250 235 271 258 c 0
 315 305 363 327 416 326 c 0
 486 325 535 307 562 274 c 0
 591 237 606 201 606 168 c 0
 606 103 579 54 524 22 c 0
 499 7 453 0 387 0 c 2
 278 0 l 2
 266 0 251 5 233 15 c 0
 218 24 211 31 211 36 c 1
 210 8 204 -30 195 -78 c 0
 188 -114 167 -155 132 -200 c 0
 108 -231 50 -246 0 -246 c 1
 0 -140 l 1
 12 -140 45 -130 60 -112 c 0
 69 -101 77 -80 84 -48 c 0
 95 -1 97 45 92 90 c 0
 88 121 83 152 78 183 c 2
 73 225 l 1
 190 225 l 1
 196 212 201 197 205 180 c 1
304 112 m 1
 368 112 l 2
 399 112 419 115 429 122 c 0
 450 137 460 150 460 162 c 0
 460 173 456 183 449 194 c 0
 442 203 430 208 413 207 c 0
 390 206 367 193 344 166 c 0
 325 143 312 125 304 112 c 1
EndSplineSet
Colour: ffff
EndChar

StartChar: uniFEBC.alt
Encoding: 1114126 -1 146
Width: 613
Flags: W
AnchorPoint: "rtl-below" 362 -64 basechar 0
AnchorPoint: "rtl-above" 149 438 basechar 0
LayerCount: 2
Fore
SplineSet
579 168 m 0
 580 155 579 145 576 140 c 1
 581 132 586 126 591 122 c 0
 600 115 607 112 612 112 c 2
 628 112 l 1
 628 0 l 1
 602 0 l 2
 585 0 563 9 538 28 c 2
 522 40 l 1
 491 6 416 0 360 0 c 2
 251 0 l 2
 239 0 224 5 206 15 c 0
 191 24 184 31 184 36 c 1
 183 8 177 -30 168 -78 c 0
 161 -114 140 -155 105 -200 c 0
 81 -231 50 -246 0 -246 c 1
 0 -140 l 1
 12 -140 19 -130 34 -112 c 0
 56 -86 68 -7 68 37 c 0
 68 55 66 72 64 90 c 0
 56 154 51 193 46 225 c 1
 163 225 l 1
 165 221 167 217 168 213 c 0
 172 203 175 192 178 180 c 1
 201 209 223 235 244 258 c 0
 288 305 336 327 389 326 c 0
 459 325 508 307 535 274 c 0
 564 237 579 201 579 168 c 0
277 112 m 1
 341 112 l 2
 372 112 392 115 402 122 c 0
 423 137 433 150 433 162 c 0
 433 173 429 183 422 194 c 0
 415 203 403 208 386 207 c 0
 363 206 340 193 317 166 c 0
 298 143 285 125 277 112 c 1
EndSplineSet
Colour: ffff
EndChar

StartChar: uniFE73
Encoding: 65139 65139 149
Width: 613
Flags: W
LayerCount: 2
Fore
SplineSet
613 -246 m 1
 569 -246 530 -229 497 -196 c 0
 464 -164 447 -109 447 -32 c 0
 447 40 456 100 473 149 c 1
 587 149 l 1
 571 78 564 17 566 -32 c 0
 567 -72 574 -102 586 -122 c 0
 593 -134 602 -140 613 -140 c 1
 613 -246 l 1
EndSplineSet
Colour: ffff
EndChar

StartChar: uni0674
Encoding: 1652 1652 150
Width: 613
Flags: W
LayerCount: 2
Fore
SplineSet
220 706 m 25
 262 720 l 17
 251 725 241 734 232 747 c 16
 220 763 214 779 214 796 c 0
 214 827 220 847 235 866 c 0
 250 886 295 897 317 897 c 0
 341 897 364 893 385 882 c 9
 385 821 l 17
 365 831 343 836 320 836 c 0
 311 836 303 833 298 828 c 24
 290 821 286 811 287 797 c 0
 287 778 302 760 332 744 c 17
 395 759 l 9
 395 758 395 758 395 694 c 25
 220 644 l 25
 220 706 l 25
EndSplineSet
Colour: ffff
EndChar

StartChar: madda
Encoding: 1114129 -1 151
Width: 613
Flags: W
AnchorPoint: "rtl-above" 307 528 mark 0
AnchorPoint: "Ligature rtl-above" 307 528 mark 0
LayerCount: 2
Fore
SplineSet
110 694 m 25
 206 750 l 25
 227 730 258 714 299 701 c 0
 313 696 329 694 347 694 c 0
 364 694 381 697 397 702 c 0
 441 715 476 735 502 761 c 25
 502 661 l 17
 483 644 450 629 404 614 c 0
 382 607 362 604 344 604 c 0
 339 604 320 607 289 612 c 0
 255 617 228 631 209 653 c 25
 110 594 l 25
 110 694 l 25
EndSplineSet
Colour: ffff
EndChar

StartChar: uniFBB2
Encoding: 64434 64434 154
Width: 613
Flags: W
LayerCount: 2
Fore
SplineSet
23 -198 m 1
 23 -59 47 66 47 237 c 2
 47 542 l 1
 156 542 l 1
 156 226 l 2
 156 192 156 163 171 136 c 0
 190 100 224 82 255 82 c 0
 291 82 327 105 346 146 c 0
 358 172 360 199 360 233 c 2
 360 542 l 1
 467 542 l 1
 467 144 l 2
 467 126 469 106 475 97 c 0
 484 84 490 82 499 82 c 0
 538 82 563 155 563 155 c 1
 614 64 l 1
 591 26 547 -12 492 -12 c 0
 445 -12 406 18 389 57 c 1
 355 13 304 -13 249 -13 c 0
 203 -13 159 7 129 38 c 1
 129 -20 128 -105 128 -198 c 1
 23 -198 l 1
EndSplineSet
EndChar

StartChar: uniFBB3
Encoding: 64435 64435 155
Width: 613
Flags: W
LayerCount: 2
Fore
SplineSet
23 -198 m 1
 23 -59 47 66 47 237 c 2
 47 542 l 1
 156 542 l 1
 156 226 l 2
 156 192 156 163 171 136 c 0
 190 100 224 82 255 82 c 0
 291 82 327 105 346 146 c 0
 358 172 360 199 360 233 c 2
 360 542 l 1
 467 542 l 1
 467 144 l 2
 467 126 469 106 475 97 c 0
 484 84 490 82 499 82 c 0
 538 82 563 155 563 155 c 1
 614 64 l 1
 591 26 547 -12 492 -12 c 0
 445 -12 406 18 389 57 c 1
 355 13 304 -13 249 -13 c 0
 203 -13 159 7 129 38 c 1
 129 -20 128 -105 128 -198 c 1
 23 -198 l 1
EndSplineSet
EndChar

StartChar: uniFBB4
Encoding: 64436 64436 156
Width: 613
Flags: W
LayerCount: 2
Fore
SplineSet
23 -198 m 1
 23 -59 47 66 47 237 c 2
 47 542 l 1
 156 542 l 1
 156 226 l 2
 156 192 156 163 171 136 c 0
 190 100 224 82 255 82 c 0
 291 82 327 105 346 146 c 0
 358 172 360 199 360 233 c 2
 360 542 l 1
 467 542 l 1
 467 144 l 2
 467 126 469 106 475 97 c 0
 484 84 490 82 499 82 c 0
 538 82 563 155 563 155 c 1
 614 64 l 1
 591 26 547 -12 492 -12 c 0
 445 -12 406 18 389 57 c 1
 355 13 304 -13 249 -13 c 0
 203 -13 159 7 129 38 c 1
 129 -20 128 -105 128 -198 c 1
 23 -198 l 1
EndSplineSet
EndChar

StartChar: arabic_dot
Encoding: 1114132 -1 157
Width: 613
Flags: W
LayerCount: 2
Fore
SplineSet
-2 112 m 1
 110 112 l 1
 110 0 l 1
 -2 0 l 1
 -2 112 l 1
EndSplineSet
Colour: ffff
EndChar

StartChar: arabic_2dots
Encoding: 1114133 -1 158
Width: 613
Flags: W
LayerCount: 2
Fore
SplineSet
173 112 m 1
 174 112 174 112 286 112 c 1
 286 0 l 1
 173 0 l 1
 173 112 l 1
-2 112 m 1
 110 112 l 1
 110 0 l 1
 -2 0 l 1
 -2 112 l 1
EndSplineSet
Colour: ffff
EndChar

StartChar: arabic_3dots
Encoding: 1114134 -1 159
Width: 613
Flags: W
LayerCount: 2
Fore
SplineSet
86 288 m 1
 198 288 l 1
 198 175 l 1
 86 175 l 1
 86 288 l 1
173 112 m 1
 174 112 174 112 286 112 c 1
 286 0 l 1
 173 0 l 1
 173 112 l 1
-2 112 m 1
 110 112 l 1
 110 0 l 1
 -2 0 l 1
 -2 112 l 1
EndSplineSet
Colour: ffff
EndChar

StartChar: tatweelarabic
Encoding: 1600 1600 199
Width: 613
Flags: W
AnchorPoint: "rtl-below" 298 -66 basechar 0
AnchorPoint: "rtl-above" 303 454 basechar 0
LayerCount: 2
Fore
SplineSet
-18 0 m 1
 -18 112 l 1
 630 112 l 1
 630 0 l 1
 -18 0 l 1
EndSplineSet
Colour: ffff
EndChar
